<svg xmlns="http://www.w3.org/2000/svg" viewBox="0 0 24.91 24.91"><defs><style>.cls-1{fill:#fff;}</style></defs><title>Asset 2</title><g id="Layer_2" data-name="Layer 2"><g id="Layer_1-2" data-name="Layer 1"><path class="cls-1" d="M22,2H20.82V0H18.88V2H6V0H4.09V2H2.92A2.92,2.92,0,0,0,0,4.87V22a2.92,2.92,0,0,0,2.92,2.92H22A2.92,2.92,0,0,0,24.91,22V4.87A2.92,2.92,0,0,0,22,2Zm1,20a1,1,0,0,1-1,1H2.92a1,1,0,0,1-1-1V9.15H23ZM23,7.2H2V4.87a1,1,0,0,1,1-1H4.09V5.84H6V3.89H18.88V5.84h1.94V3.89H22a1,1,0,0,1,1,1Z"/><rect class="cls-1" x="3.7" y="11.19" width="1.95" height="1.95"/><rect class="cls-1" x="7.59" y="11.19" width="1.95" height="1.95"/><rect class="cls-1" x="11.48" y="11.19" width="1.95" height="1.95"/><rect class="cls-1" x="15.37" y="11.19" width="1.95" height="1.95"/><rect class="cls-1" x="19.27" y="11.19" width="1.95" height="1.95"/><rect class="cls-1" x="3.7" y="15.08" width="1.95" height="1.95"/><rect class="cls-1" x="7.59" y="15.08" width="1.95" height="1.95"/><rect class="cls-1" x="11.48" y="15.08" width="1.95" height="1.95"/><rect class="cls-1" x="15.37" y="15.08" width="1.95" height="1.95"/><rect class="cls-1" x="3.7" y="18.98" width="1.95" height="1.95"/><rect class="cls-1" x="7.59" y="18.98" width="1.95" height="1.95"/><rect class="cls-1" x="11.48" y="18.98" width="1.95" height="1.95"/><rect class="cls-1" x="15.37" y="18.98" width="1.95" height="1.95"/><rect class="cls-1" x="19.27" y="15.08" width="1.95" height="1.95"/></g></g></svg>