<svg xmlns="http://www.w3.org/2000/svg" viewBox="0 0 26.79 22.81"><defs><style>.cls-1{fill:#fff;}</style></defs><title>Asset 10</title><g id="Layer_2" data-name="Layer 2"><g id="Layer_1-2" data-name="Layer 1"><path class="cls-1" d="M25.74,0H1.05A1,1,0,0,0,0,1.05V21.77a1,1,0,0,0,1.05,1H25.74a1,1,0,0,0,1.05-1V1.05A1,1,0,0,0,25.74,0Zm-1,20.72H2.09V7.12H24.7ZM24.7,5H2.09V2.09H24.7ZM4,17.79a1,1,0,0,1,1-1.05H6.07V13.6a1,1,0,0,1,2.09,0v3.14h4.19V11.51a1,1,0,1,1,2.09,0v5.23h4.19V9.42a1,1,0,1,1,2.09,0v7.32h1.05a1.05,1.05,0,0,1,0,2.1H5A1,1,0,0,1,4,17.79Z"/></g></g></svg>