<svg xmlns="http://www.w3.org/2000/svg" viewBox="0 0 28.99 25.59"><defs><style>.cls-1{fill:#fff;}</style></defs><title>Asset 7</title><g id="Layer_2" data-name="Layer 2"><g id="Layer_1-2" data-name="Layer 1"><path class="cls-1" d="M15.34,10.29V9a2.56,2.56,0,0,1,2.55-2.55A4.25,4.25,0,0,0,22.14,2.2V0H20.45V2.2a2.56,2.56,0,0,1-2.56,2.55A4.25,4.25,0,0,0,13.65,9v1.29H0v15.3H29V10.29Zm12,13.6H1.7V12H27.29Z"/><path class="cls-1" d="M3.45,13.69h1.7v1.7H3.45Z"/><path class="cls-1" d="M6.84,13.69h1.7v1.7H6.84Z"/><path class="cls-1" d="M10.25,13.69H12v1.7h-1.7Z"/><path class="cls-1" d="M13.65,13.69h1.7v1.7h-1.7Z"/><path class="cls-1" d="M17,13.69h1.7v1.7H17Z"/><path class="cls-1" d="M20.45,13.69h1.7v1.7h-1.7Z"/><path class="cls-1" d="M23.85,13.69h1.7v1.7h-1.7Z"/><path class="cls-1" d="M3.45,17.09h1.7v1.7H3.45Z"/><path class="cls-1" d="M6.84,17.09h1.7v1.7H6.84Z"/><path class="cls-1" d="M10.25,17.09H12v1.7h-1.7Z"/><path class="cls-1" d="M13.65,17.09h1.7v1.7h-1.7Z"/><path class="cls-1" d="M17,17.09h1.7v1.7H17Z"/><path class="cls-1" d="M20.45,17.09h1.7v1.7h-1.7Z"/><path class="cls-1" d="M23.85,17.09h1.7v1.7h-1.7Z"/><path class="cls-1" d="M3.45,20.49h1.7v1.7H3.45Z"/><path class="cls-1" d="M6.84,20.49h1.7v1.7H6.84Z"/><path class="cls-1" d="M10.25,20.49h8.49v1.7H10.25Z"/><path class="cls-1" d="M20.45,20.49h5.1v1.7h-5.1Z"/></g></g></svg>