<svg xmlns="http://www.w3.org/2000/svg" viewBox="0 0 16.67 23.54"><defs><style>.cls-1{fill:#fff;}</style></defs><title>Asset 6</title><g id="Layer_2" data-name="Layer 2"><g id="Layer_1-2" data-name="Layer 1"><path class="cls-1" d="M10.3,0H6.38A6.38,6.38,0,0,0,0,6.38V15.2a8.34,8.34,0,1,0,16.67,0V6.38A6.38,6.38,0,0,0,10.3,0Zm-2,3.92a.49.49,0,0,1,.49.49v3a.49.49,0,0,1-1,0V4.41A.49.49,0,0,1,8.34,3.92ZM15.69,15.2A7.36,7.36,0,1,1,1,15.2V6.38A5.4,5.4,0,0,1,6.38,1H7.85V3a1.48,1.48,0,0,0-1,1.38v3a1.47,1.47,0,0,0,2.94,0V4.41A1.48,1.48,0,0,0,8.83,3V1H10.3a5.4,5.4,0,0,1,5.39,5.4Z"/></g></g></svg>