<svg xmlns="http://www.w3.org/2000/svg" viewBox="0 0 24.97 27.09"><defs><style>.cls-1{fill:#fff;}</style></defs><title>Asset 1</title><g id="Layer_2" data-name="Layer 2"><g id="Layer_1-2" data-name="Layer 1"><path class="cls-1" d="M19.67,2.59,22.55,5a1,1,0,0,0,.67.25,1.06,1.06,0,0,0,.68-1.87L21,1a1.06,1.06,0,0,0-1.36,1.63Z"/><path class="cls-1" d="M1.75,5.23A1,1,0,0,0,2.43,5L5.3,2.59A1.06,1.06,0,0,0,3.94,1L1.07,3.36a1.06,1.06,0,0,0,.68,1.87Z"/><path class="cls-1" d="M21.32,5.77a12.47,12.47,0,0,0-7.78-3.61V1.06a1.06,1.06,0,1,0-2.11,0v1.1A12.48,12.48,0,0,0,3.66,23.43a12.48,12.48,0,0,0,16.23,1.23A1.06,1.06,0,0,0,18.63,23a10.26,10.26,0,0,1-6.14,2,10.37,10.37,0,1,1,9.09-5.38,1.06,1.06,0,1,0,1.85,1A12.52,12.52,0,0,0,21.32,5.77Z"/><path class="cls-1" d="M17.64,8.23a1.07,1.07,0,0,0-1.49.16l-3.33,4.12-.33,0A2.12,2.12,0,1,0,14.6,14.6a2.18,2.18,0,0,0-.14-.76L17.8,9.72A1.05,1.05,0,0,0,17.64,8.23Z"/></g></g></svg>