<svg xmlns="http://www.w3.org/2000/svg" viewBox="0 0 24 24"><defs><style>.cls-1{fill:#fff;}</style></defs><title>Asset 12</title><g id="Layer_2" data-name="Layer 2"><g id="Layer_1-2" data-name="Layer 1"><circle class="cls-1" cx="18.09" cy="9.84" r="0.94"/><path class="cls-1" d="M20.25,1.88H19V.94a.94.94,0,1,0-1.87,0v.94H12.89V.94A.94.94,0,1,0,11,.94v.94H6.8V.94a.94.94,0,1,0-1.88,0v.94H3.75A3.75,3.75,0,0,0,0,5.63V20.25A3.75,3.75,0,0,0,3.75,24h7.17a.94.94,0,1,0,0-1.87H3.75a1.88,1.88,0,0,1-1.87-1.88V5.63A1.88,1.88,0,0,1,3.75,3.75H4.92v.94a.94.94,0,1,0,1.88,0V3.75H11v.94a.94.94,0,1,0,1.87,0V3.75h4.27v.94a.94.94,0,1,0,1.87,0V3.75h1.22a1.88,1.88,0,0,1,1.88,1.88V11A.94.94,0,1,0,24,11V5.63A3.75,3.75,0,0,0,20.25,1.88Z"/><path class="cls-1" d="M18.33,12.66A5.67,5.67,0,1,0,24,18.33,5.67,5.67,0,0,0,18.33,12.66Zm0,9.47a3.8,3.8,0,1,1,3.8-3.8A3.8,3.8,0,0,1,18.33,22.13Z"/><path class="cls-1" d="M19.69,17.39h-.42v-1a.94.94,0,0,0-1.88,0v1.92a.94.94,0,0,0,.94.94h1.36a.94.94,0,0,0,0-1.88Z"/><circle class="cls-1" cx="14.02" cy="9.84" r="0.94"/><circle class="cls-1" cx="9.94" cy="13.92" r="0.94"/><circle class="cls-1" cx="5.86" cy="9.84" r="0.94"/><circle class="cls-1" cx="5.86" cy="13.92" r="0.94"/><circle class="cls-1" cx="5.86" cy="18" r="0.94"/><circle class="cls-1" cx="9.94" cy="18" r="0.94"/><circle class="cls-1" cx="9.94" cy="9.84" r="0.94"/></g></g></svg>